HIERARCHY
ROOT Hips
{
	OFFSET -0.179506 -22.333345 2.821913
	CHANNELS 6 Xposition Yposition Zposition Zrotation Yrotation Xrotation 
	JOINT LeftUpLeg
	{
		OFFSET 6.951974 -9.140623 -0.681533
		CHANNELS 3 Zrotation Yrotation Xrotation
		JOINT LeftLeg
		{
			OFFSET 3.427654 -37.519855 -0.449580
			CHANNELS 3 Zrotation Yrotation Xrotation
			JOINT LeftFoot
			{
				OFFSET -1.359570 -39.796059 -4.369333
				CHANNELS 3 Zrotation Yrotation Xrotation
				JOINT LeftToe
				{
					OFFSET 2.635814 -5.579078 11.928840
					CHANNELS 3 Zrotation Yrotation Xrotation
					End Site
					{
						OFFSET 0.000000 0.000000 0.000000
					}
				}
			}
		}
	}
	JOINT RightUpLeg
	{
		OFFSET -6.767048 -9.052170 -0.431982
		CHANNELS 3 Zrotation Yrotation Xrotation
		JOINT RightLeg
		{
			OFFSET -3.829005 -38.256897 -0.885003
			CHANNELS 3 Zrotation Yrotation Xrotation
			JOINT RightFoot
			{
				OFFSET 1.577377 -39.841461 -4.231180
				CHANNELS 3 Zrotation Yrotation Xrotation
				JOINT RightToe
				{
					OFFSET -2.537174 -4.814398 12.334795
					CHANNELS 3 Zrotation Yrotation Xrotation
					End Site
					{
						OFFSET 0.000000 0.000000 0.000000
					}
				}
			}
		}
	}
	JOINT Spine
	{
		OFFSET -0.253288 10.896323 -2.669631
		CHANNELS 3 Zrotation Yrotation Xrotation
		JOINT Spine1
		{
			OFFSET 0.548704 13.518043 0.109247
			CHANNELS 3 Zrotation Yrotation Xrotation
			JOINT Spine2
			{
				OFFSET 0.145701 5.292222 2.542457
				CHANNELS 3 Zrotation Yrotation Xrotation
				JOINT Neck
				{
					OFFSET -0.277840 21.387037 -4.285703
					CHANNELS 3 Zrotation Yrotation Xrotation
					JOINT Head
					{
						OFFSET 0.515184 6.496960 5.134897
						CHANNELS 3 Zrotation Yrotation Xrotation
						End Site
						{
							OFFSET 0.000000 0.000000 0.000000
						}
					}
				}
				JOINT LeftShoulder
				{
					OFFSET 7.884473 12.174932 -3.408961
					CHANNELS 3 Zrotation Yrotation Xrotation
					JOINT LeftArm
					{
						OFFSET 9.097692 3.046888 -0.886815
						CHANNELS 3 Zrotation Yrotation Xrotation
						JOINT LeftForeArm
						{
							OFFSET 25.961220 -1.277207 -2.745643
							CHANNELS 3 Zrotation Yrotation Xrotation
							JOINT LeftHand
							{
								OFFSET 24.923361 0.898606 -0.117091
								CHANNELS 3 Zrotation Yrotation Xrotation
								End Site
								{
									OFFSET 0.000000 0.000000 0.000000
								}
							}
						}
					}
				}
				JOINT RightShoulder
				{
					OFFSET -8.175920 11.883285 -3.861528
					CHANNELS 3 Zrotation Yrotation Xrotation
					JOINT RightArm
					{
						OFFSET -9.601238 3.255117 -0.914307
						CHANNELS 3 Zrotation Yrotation Xrotation
						JOINT RightForeArm
						{
							OFFSET -25.374195 -1.332924 -2.140099
							CHANNELS 3 Zrotation Yrotation Xrotation
							JOINT RightHand
							{
								OFFSET -25.529810 0.777228 -0.555919
								CHANNELS 3 Zrotation Yrotation Xrotation
								End Site
								{
									OFFSET 0.000000 0.000000 0.000000
								}
							}
						}
					}
				}
			}
		}
	}
}
MOTION
Frames: 18
Frame Time: 0.033333
248.366806 222.369751 92.935753 -56.664719 1.162759 88.922903 1.100115 2.190154 3.715666 2.760984 1.500857 -6.929144 -3.115798 9.152664 2.267837 nan nan nan -0.583877 -3.287704 4.241091 1.855243 -3.500695 -5.461601 6.057928 -7.179920 4.555442 nan nan nan -3.676791 1.745403 -1.247316 5.567739 -3.425369 6.074791 -0.130654 -2.085201 0.832043 10.564372 -34.864824 -1.326370 10.841182 -29.707171 -6.551473 -14.585083 14.429902 0.062962 -70.628970 -4.769551 22.632669 22.674438 -64.289050 -40.995954 -1.254159 -15.381784 -43.344870 14.458667 -3.813352 -4.724129 59.909644 3.888334 20.439422 -0.896814 68.874067 -14.953350 -1.917729 5.530577 -50.227317 
248.389236 222.291122 92.955818 -56.577647 1.101144 89.089504 0.800979 1.837166 3.582658 3.121718 2.012944 -6.938146 -3.704958 8.787456 2.053114 nan nan nan -0.717688 -3.442815 4.023638 1.819874 -4.333145 -5.345942 6.578471 -6.221685 4.497525 nan nan nan -3.517511 1.673486 -1.300490 5.420412 -3.463710 5.716993 -0.069932 -2.118719 0.881500 9.282973 -33.988565 0.269898 11.571941 -29.616684 -7.049250 -14.955025 14.593765 0.152774 -70.513058 -5.356721 21.185251 20.226774 -62.290802 -36.263793 0.778763 -19.190157 -38.165419 15.325786 -3.362634 -4.261579 60.563544 5.961894 17.746144 -4.767524 66.969825 -18.394322 -3.674142 13.335447 -44.310508 
248.288284 221.846268 92.872681 -58.234241 1.563925 88.524405 0.895731 3.172525 5.331340 3.477967 2.099280 -8.393935 -3.708971 9.128684 2.115349 nan nan nan -0.666871 -3.251549 4.486247 1.978989 -3.530486 -5.056484 6.983606 -5.571537 4.358475 nan nan nan -1.982322 1.574548 -1.645972 5.136312 -2.778948 5.912897 -0.346595 -1.358998 1.713002 8.657726 -33.204918 1.228240 11.352811 -28.688331 -8.166594 -15.637425 14.267233 -0.405124 -70.597037 -4.751108 20.585768 20.133073 -62.316463 -35.900044 1.332373 -18.996927 -37.731385 14.503337 -2.969579 -3.893145 60.533044 6.221941 16.694982 -2.775385 67.156894 -16.768575 -3.533788 13.883463 -43.729997 
248.246872 221.685120 92.815262 -58.780392 1.772469 88.340057 0.982044 3.655977 5.885968 3.596616 2.126102 -8.882466 -3.760405 9.178277 2.225527 nan nan nan -0.562120 -3.159426 4.627246 2.027778 -3.278815 -4.980070 7.075870 -5.361787 4.342956 nan nan nan -1.330153 1.525134 -1.736630 5.008157 -2.547264 5.854255 -0.449341 -1.093073 2.013673 8.138415 -32.616357 1.784983 10.870069 -28.155214 -8.170182 -15.915668 13.985216 -0.560684 -70.597413 -4.509867 20.381157 20.396142 -62.325493 -35.977562 1.588865 -19.007579 -37.820878 14.227760 -2.743142 -3.728741 60.511725 6.239196 16.355001 -2.451704 67.302886 -16.532234 -3.551663 13.999334 -43.786306 
248.264496 221.803711 92.819458 -58.321132 1.669765 88.493378 0.985470 3.338606 5.387036 3.506080 2.117757 -8.465727 -3.827283 9.006646 2.140704 nan nan nan -0.476477 -3.156161 4.513940 1.927505 -3.585912 -5.122426 6.918187 -5.444861 4.401067 nan nan nan -1.659910 1.536313 -1.624355 5.025123 -2.737208 5.783660 -0.340841 -1.279905 1.709959 7.792776 -31.996176 2.156743 10.667415 -27.685882 -7.814980 -16.011878 13.848457 -0.584365 -70.361470 -4.636819 20.495861 20.776893 -62.137627 -36.254566 1.132360 -19.633640 -37.793065 14.551669 -2.750828 -3.835800 60.515920 6.158666 16.564403 -3.301379 67.285266 -17.325535 -3.048881 14.619674 -43.817996 
248.349045 222.179428 92.909279 -56.731317 1.158765 88.921737 0.762143 1.977006 3.897213 3.232335 2.145417 -7.082650 -3.831832 8.672486 1.767518 nan nan nan -0.629879 -3.344635 4.210080 1.804604 -4.582759 -5.356130 6.623442 -5.772983 4.292873 nan nan nan -3.067826 1.662684 -1.341842 5.156500 -3.449167 5.809622 0.032991 -2.021392 0.785190 7.375361 -31.363023 2.668479 10.817006 -27.118121 -7.280762 -15.805516 13.616241 -0.352949 -70.065509 -5.156914 20.856991 21.575668 -61.529912 -37.054289 0.055601 -21.143918 -37.673237 15.305841 -2.856544 -4.199469 60.663490 5.931195 17.186617 -5.325997 67.166471 -19.247999 -2.027176 16.213354 -43.631676 
248.383057 222.191559 92.927414 -56.574053 1.064156 88.831261 0.670903 1.740324 3.911457 3.194075 1.997313 -6.897135 -3.554612 8.870975 1.381429 nan nan nan -0.770052 -3.444655 4.306119 1.840736 -4.580628 -5.336818 6.641979 -5.874132 4.220120 nan nan nan -3.236303 1.711395 -1.172256 5.242369 -3.539679 5.825200 0.038936 -2.052055 0.644498 7.065518 -30.758608 2.808956 10.394901 -26.370478 -6.792864 -15.472288 14.038312 -0.138585 -70.188135 -5.349878 20.862983 20.768493 -62.078049 -36.617815 -1.219156 -20.772975 -37.883008 15.391077 -3.164074 -4.093860 60.674853 6.322231 17.379596 -4.906971 66.808768 -19.117640 -0.780884 15.938780 -43.683813 
248.414795 222.183640 92.938507 -56.591213 0.967655 88.874929 0.523113 1.573235 3.824903 3.211445 2.125998 -6.793191 -3.486162 8.838813 1.379378 nan nan nan -0.929112 -3.440984 4.207207 1.900372 -4.695352 -5.281639 6.660329 -5.769139 4.225020 nan nan nan -3.262155 1.755019 -1.189988 5.226264 -3.552214 5.898194 0.004461 -2.057244 0.420136 6.707771 -30.025090 3.124560 10.074967 -25.691173 -6.317109 -15.312036 14.297181 -0.129747 -70.303231 -5.390943 20.921328 20.484300 -62.259216 -36.846283 -3.154131 -21.232403 -38.139160 15.397711 -3.368650 -4.067428 60.691003 6.429710 17.649544 -4.621979 66.964199 -19.226287 1.316617 16.602571 -44.028780 
248.380890 222.186722 92.940216 -56.669256 0.965005 88.726482 0.586801 1.699722 4.039693 3.160147 2.016410 -6.850033 -3.493142 8.826185 1.423103 nan nan nan -0.917584 -3.484320 4.424439 1.858017 -4.589909 -5.386644 6.700872 -5.760191 4.279774 nan nan nan -3.252522 1.789605 -1.159161 5.212963 -3.495311 5.988285 -0.026314 -2.006494 0.426533 6.630085 -29.207859 3.097373 9.552809 -25.127934 -5.689247 -15.276124 14.278355 -0.114246 -70.269642 -5.470868 20.976237 20.412141 -62.307100 -36.313057 -1.285791 -20.856970 -38.204950 15.438405 -3.530662 -4.000257 60.775290 6.515354 17.632107 -4.905060 66.847265 -19.284625 -0.668404 15.986472 -43.665437 
248.280914 221.721039 92.845757 -58.570924 1.351935 88.401285 0.542314 3.129648 5.542230 3.557324 2.321528 -8.284921 -3.416215 9.156472 1.446872 nan nan nan -0.995318 -3.219917 4.507841 2.048823 -3.764735 -4.932686 7.166130 -4.912556 4.190364 nan nan nan -1.659124 1.733011 -1.871391 4.870955 -2.659377 6.320500 -0.481092 -1.180698 1.053859 6.345047 -28.172754 3.268775 8.560807 -24.530804 -5.464717 -15.784191 14.024573 -0.594978 -70.450186 -4.773507 20.608146 20.578121 -62.165091 -35.738044 0.513821 -20.487721 -37.657434 14.759439 -3.201310 -3.496731 60.609719 6.531473 16.885029 -3.950485 67.601665 -18.503754 -2.214010 16.084347 -43.499439 
248.282516 221.743729 92.794464 -58.583365 1.409900 88.423907 0.637386 3.212570 5.430314 3.535943 2.219079 -8.171417 -3.419251 9.205753 1.347980 nan nan nan -0.853801 -3.197398 4.434276 1.970084 -3.720418 -4.914371 7.121396 -4.960795 4.154627 nan nan nan -1.544722 1.713259 -1.811609 4.831823 -2.612060 6.111009 -0.491519 -1.130838 1.183056 6.077833 -27.258712 3.496601 8.237310 -23.810116 -5.202504 -15.785098 13.893937 -0.610615 -70.378499 -4.779854 20.597562 20.493190 -62.174164 -35.036874 2.253462 -20.138010 -37.582208 14.694657 -3.282045 -3.481027 60.743954 6.536591 16.790371 -4.088297 67.621135 -18.380122 -4.016641 15.681501 -43.428748 
248.259094 221.700928 92.752274 -58.818208 1.437590 88.521436 0.617642 3.284925 5.457355 3.554645 2.378564 -8.355298 -3.439487 9.182977 1.452830 nan nan nan -0.821884 -3.108299 4.280177 1.955466 -3.721085 -4.871424 7.128795 -4.827766 4.180038 nan nan nan -1.357700 1.722672 -1.981957 4.740765 -2.506112 6.039150 -0.520629 -1.050993 1.263598 5.742428 -26.258844 3.794803 7.899409 -23.043434 -4.963466 -15.787618 13.863360 -0.759358 -70.440266 -4.568109 20.572678 20.637799 -62.197440 -35.206500 0.924254 -20.547107 -37.550697 14.580863 -3.246263 -3.457118 60.810591 6.566709 16.906486 -3.933793 67.679398 -18.417303 -2.473126 16.227423 -43.757658 
248.185547 221.558426 92.716171 -59.487423 1.442683 88.707856 0.471926 3.654780 5.654662 3.642173 2.651602 -8.855323 -3.446072 9.257785 1.600238 nan nan nan -0.900077 -2.928879 3.961640 1.961800 -3.557016 -4.695350 7.298381 -4.507635 4.214857 nan nan nan -0.977330 1.746104 -2.568808 4.598977 -2.199580 6.140927 -0.655526 -0.807340 1.402363 5.458368 -25.356380 4.046205 7.398371 -22.438333 -4.648897 -15.909623 13.857437 -1.019598 -70.441493 -4.211045 20.533681 20.770909 -62.137878 -35.095207 0.925052 -20.711139 -37.446343 14.456790 -3.216189 -3.326676 60.853155 6.554759 16.884368 -3.937169 67.677578 -18.366259 -2.494229 16.377708 -43.563222 
248.251022 221.790237 92.722511 -58.467735 1.343948 88.578585 0.619153 2.994364 5.166445 3.462915 2.394715 -8.065924 -3.439130 9.061075 1.465660 nan nan nan -0.750651 -3.118097 4.289717 1.842978 -3.921304 -5.048358 7.091475 -4.953511 4.232681 nan nan nan -1.592029 1.766971 -1.780268 4.717467 -2.602314 5.719305 -0.417759 -1.194086 1.215617 5.335641 -24.665191 3.985122 7.244867 -21.798314 -4.066236 -15.635680 13.741943 -0.834803 -70.450085 -4.576752 20.770855 20.986618 -62.076811 -35.254372 1.077581 -20.847209 -37.939730 14.726626 -3.393038 -3.591812 60.980984 6.517341 17.270490 -4.724390 67.590883 -18.935427 -2.515424 16.302737 -43.816994 
248.334015 222.147491 92.764496 -56.912985 0.968708 88.677708 0.567686 1.817875 4.164251 3.177716 2.120898 -6.947848 -3.368881 8.829578 1.506785 nan nan nan -0.808131 -3.329301 4.411929 1.737729 -4.333621 -5.423127 6.795196 -5.921410 4.242653 nan nan nan -3.070790 1.967348 -1.149403 5.211552 -3.448768 5.496341 -0.082155 -1.719587 0.670979 4.705095 -24.800994 4.124697 7.449906 -20.420521 -3.087399 -14.341195 13.614653 0.525794 -70.661290 -4.796932 22.240351 17.752392 -63.158825 -34.831871 -8.420170 -20.894944 -44.692216 15.173133 -4.044146 -3.765190 61.319968 6.888318 18.181568 -7.625769 66.755785 -21.432589 3.418919 15.058999 -42.920321 
248.338516 222.139420 92.765640 -56.928296 0.886040 88.645578 0.455152 1.724565 4.238789 3.207352 2.265874 -7.000486 -3.378587 8.754297 1.547364 nan nan nan -0.959820 -3.352116 4.431353 1.784103 -4.422994 -5.346389 6.826825 -5.762657 4.189140 nan nan nan -3.069792 2.007045 -1.168077 5.137101 -3.448068 5.566477 -0.083045 -1.733549 0.536713 4.550902 -23.924379 4.330968 7.171492 -19.703030 -2.724150 -14.305367 13.704530 0.469700 -70.710349 -4.777342 22.101517 17.944843 -62.796034 -34.680075 -10.622712 -21.596888 -43.863861 15.254056 -4.078094 -3.618254 61.291255 7.010629 18.201870 -7.719561 66.747677 -21.619068 5.743333 15.908778 -42.579874 
248.337677 222.157990 92.755112 -56.945818 0.866986 88.658427 0.464369 1.753626 4.180919 3.187907 2.204518 -6.964873 -3.386342 8.712457 1.750716 nan nan nan -1.002925 -3.354391 4.374722 1.798102 -4.433107 -5.248592 6.857987 -5.708144 4.113910 nan nan nan -3.080572 2.038601 -1.341980 5.140562 -3.449640 5.721998 -0.084762 -1.692858 0.405147 4.332238 -23.078649 4.532717 6.925771 -18.920613 -2.322687 -14.282356 13.539490 0.729461 -70.694891 -4.835769 22.063797 18.024646 -63.002301 -34.647741 -9.574233 -21.377759 -44.368201 15.286171 -4.113785 -3.298743 61.306494 7.124893 18.035530 -8.181723 66.647550 -21.810352 4.286504 15.374083 -42.090792 
248.347778 222.167572 92.749527 -56.870714 0.827673 88.717686 0.457535 1.766429 3.991755 3.136761 2.202833 -6.767930 -3.473551 8.516037 1.832418 nan nan nan -1.090084 -3.363904 4.287916 1.847140 -4.646646 -5.178781 6.877992 -5.616878 4.121883 nan nan nan -3.066789 2.030238 -1.516309 5.110178 -3.493457 5.822292 -0.115416 -1.694637 0.316302 4.041902 -22.075359 4.832012 6.756244 -18.162933 -2.089693 -14.272696 13.508322 0.765894 -70.686921 -4.837320 22.060856 17.884199 -62.956667 -34.472731 -9.257429 -21.469297 -44.484559 15.351699 -4.165944 -3.122994 61.293196 7.086043 18.015967 -8.805986 67.075302 -22.435675 3.820140 15.681101 -42.136832 
